<svg width="28" height="28" viewBox="0 0 28 28" fill="none" xmlns="http://www.w3.org/2000/svg">
<g clip-path="url(#clip0_314_15504)">
<path d="M22.2578 28H5.74219C2.57595 28 0 25.4241 0 22.2578V5.74219C0 2.57595 2.57595 0 5.74219 0H22.2578C25.4241 0 28 2.57595 28 5.74219V22.2578C28 25.4241 25.4241 28 22.2578 28Z" fill="#00AAF0"/>
<path d="M22.2578 0H14V28H22.2578C25.4241 28 28 25.4241 28 22.2578V5.74219C28 2.57595 25.4241 0 22.2578 0Z" fill="#00AAF0"/>
<path d="M8.62127 21.5753C8.36834 22.0134 7.90782 22.2585 7.43493 22.2586C7.20311 22.2586 6.9684 22.1997 6.75364 22.0757C6.10078 21.6988 5.87629 20.861 6.25319 20.2081L6.52209 19.7424H9.67947L8.62127 21.5753Z" fill="white"/>
<path d="M6.04297 18.6488C5.2891 18.6488 4.67578 18.0355 4.67578 17.2816C4.67578 16.5277 5.2891 15.9144 6.04297 15.9144H8.73239L12.4213 9.52505L11.4215 7.79342C11.0446 7.14056 11.2691 6.30275 11.9219 5.92579C12.5748 5.54888 13.4127 5.77343 13.7896 6.42623L14 6.79073L14.2104 6.42629C14.5875 5.77337 15.4253 5.54894 16.078 5.92584C16.3943 6.10844 16.6205 6.40326 16.715 6.756C16.8096 7.10873 16.761 7.47722 16.5784 7.79348L11.8898 15.9144H14.8472L16.4259 18.6488H6.04297Z" fill="white"/>
<path d="M21.9565 18.6487H20.8457L21.746 20.2081C22.123 20.8609 21.8985 21.6987 21.2457 22.0757C21.035 22.1973 20.8011 22.2595 20.5642 22.2595C20.4455 22.2595 20.326 22.2439 20.2082 22.2123C19.8554 22.1177 19.5606 21.8915 19.378 21.5752L14.6309 13.353L16.2095 10.6187L19.267 15.9143H21.9565C22.7103 15.9143 23.3237 16.5276 23.3237 17.2815C23.3237 18.0354 22.7103 18.6487 21.9565 18.6487Z" fill="white"/>
<path d="M14 15.9143V18.6487H16.4259L14.8473 15.9143H14Z" fill="white"/>
<path d="M16.715 6.75598C16.6205 6.40325 16.3943 6.10837 16.078 5.92582C15.4253 5.54892 14.5875 5.7733 14.2104 6.42627L14 6.79071V12.2595L16.5784 7.79346C16.761 7.4772 16.8096 7.10877 16.715 6.75598Z" fill="white"/>
</g>
<defs>
<clipPath id="clip0_314_15504">
<rect width="28" height="28" fill="white"/>
</clipPath>
</defs>
</svg>
