<svg width="28" height="28" viewBox="0 0 28 28" fill="none" xmlns="http://www.w3.org/2000/svg">
<g clip-path="url(#clip0_310_14570)">
<rect width="28" height="28" rx="14" fill="#FBF8FE"/>
<path d="M3.38086 4.87799C9.88907 -2.69597 21.957 -1.20148 26.4667 7.64647C23.2905 7.64822 18.3188 7.64472 15.6255 7.64647C13.6725 7.64647 12.4108 7.60272 11.0458 8.32197C9.44107 9.16721 8.22833 10.7335 7.80658 12.5744L3.38086 4.87799Z" fill="#F44336"/>
<path d="M9.3418 14.0004C9.3418 16.5677 11.4295 18.6554 13.995 18.6554C16.5605 18.6554 18.6482 16.5677 18.6482 14.0004C18.6482 11.4332 16.5605 9.34546 13.995 9.34546C11.4278 9.34371 9.3418 11.4332 9.3418 14.0004Z" fill="#2196F3"/>
<path d="M15.8003 20.0941C13.1893 20.8694 10.1321 20.0101 8.4591 17.1191C7.1816 14.9141 3.80412 9.03242 2.27113 6.35669C-3.10483 14.5956 1.52739 25.8218 11.2853 27.7381L15.8003 20.0941Z" fill="#4CAF50"/>
<path d="M18.3151 9.34428C20.4903 11.3673 20.9645 14.6432 19.4911 17.1825C18.3816 19.097 14.8378 25.0767 13.1211 27.9712C23.1748 28.5907 30.5037 18.7382 27.1928 9.34253L18.3151 9.34428Z" fill="#FFC107"/>
</g>
<defs>
<clipPath id="clip0_310_14570">
<rect width="28" height="28" rx="14" fill="white"/>
</clipPath>
</defs>
</svg>
