<svg width="20" height="20" viewBox="0 0 20 20" fill="none" xmlns="http://www.w3.org/2000/svg">
<g opacity="0.6">
<mask id="mask0_595_200" style="mask-type:alpha" maskUnits="userSpaceOnUse" x="0" y="0" width="20" height="20">
<rect width="20" height="20" fill="#D9D9D9"/>
</mask>
<g mask="url(#mask0_595_200)">
<path d="M16.4855 3.51284C16.2475 3.27136 15.8597 3.27477 15.6183 3.51284L13.4415 5.68956C10.7444 4.46516 7.8671 4.76446 5.12239 6.55685C3.07832 7.89009 1.83691 9.56684 1.78589 9.63827C1.62264 9.86274 1.62944 10.1688 1.8029 10.3865C2.96608 11.815 4.18368 12.9272 5.42849 13.7026L3.51366 15.6174C3.27558 15.8555 3.27558 16.2432 3.51366 16.4847C3.6327 16.6038 3.78915 16.665 3.9456 16.665C4.10206 16.665 4.25851 16.6038 4.37755 16.4847L16.4855 4.38013C16.7236 4.14205 16.7236 3.75432 16.4855 3.51284ZM8.4861 10.645C8.39767 10.4443 8.35346 10.2267 8.35346 9.99879C8.35346 9.56004 8.52352 9.1451 8.83642 8.8322C9.32618 8.34244 10.0506 8.2268 10.6492 8.48188L8.4861 10.645ZM11.5539 7.58059C10.4417 6.86635 8.94185 6.99559 7.97253 7.96491C7.42835 8.50909 7.13246 9.23013 7.13246 9.99538C7.13246 10.5532 7.29231 11.0871 7.58821 11.5463L6.32639 12.8081C5.22102 12.1687 4.13267 11.2232 3.07492 9.98858C3.52727 9.45801 4.48298 8.43427 5.79241 7.58059C8.05756 6.1045 10.3125 5.78479 12.5096 6.62487L11.5539 7.58059Z" fill="#1B1B1B"/>
<path d="M18.1977 9.6117C17.3576 8.57776 16.487 7.70707 15.6027 7.01664C15.334 6.80917 14.9496 6.85679 14.7388 7.12208C14.5313 7.38737 14.5789 7.77169 14.8442 7.98256C15.5448 8.53014 16.2455 9.21037 16.9257 10.0062C16.5244 10.4756 15.7421 11.3191 14.681 12.0911C12.6369 13.5774 10.5724 14.1148 8.54873 13.6862C8.21882 13.6148 7.89231 13.8291 7.82429 14.159C7.75287 14.4889 7.96714 14.8154 8.29705 14.8834C8.82422 14.9957 9.3548 15.0501 9.88877 15.0501C10.6914 15.0501 11.5009 14.9243 12.307 14.6726C13.3647 14.3427 14.4157 13.7985 15.4326 13.057C17.1468 11.802 18.1705 10.4178 18.2147 10.3599C18.378 10.1355 18.3712 9.82937 18.1977 9.6117Z" fill="#1B1B1B"/>
</g>
</g>
</svg>
