<svg width="28" height="28" viewBox="0 0 28 28" fill="none" xmlns="http://www.w3.org/2000/svg">
<g clip-path="url(#clip0_310_14577)">
<path d="M26.5718 9.39119C25.9822 7.97289 24.788 6.44173 23.8502 5.95781C24.6134 7.45403 25.0552 8.95495 25.224 10.0751C25.224 10.0773 25.2248 10.0828 25.2266 10.0977C23.6926 6.27412 21.0914 4.73234 18.9673 1.37531C18.8601 1.20556 18.7525 1.03537 18.6478 0.855948C18.5944 0.764348 18.5446 0.670725 18.4984 0.575297C18.4101 0.404894 18.3421 0.224812 18.2956 0.0386594C18.2962 0.0203941 18.2829 0.00464445 18.2647 0.00229293C18.2564 -0.000113269 18.2476 -0.000113269 18.2392 0.00229293C18.2373 0.00294917 18.2345 0.00519131 18.2325 0.00595692C18.2295 0.00716003 18.209 0.0193004 18.2099 0.0182067C14.802 2.0141 13.6641 5.69192 13.5579 7.53918C12.197 7.63275 10.8958 8.13411 9.8241 8.97798C9.71188 8.8832 9.59458 8.79461 9.47268 8.71264C9.16349 7.63083 9.15031 6.48581 9.43462 5.39716C8.04099 6.03175 6.957 7.0348 6.16897 7.92051H6.16268C5.62489 7.23933 5.66279 4.99227 5.69347 4.52311C5.68702 4.49402 5.29229 4.72802 5.24055 4.76329C4.76599 5.10202 4.32232 5.48209 3.91474 5.89908C3.45094 6.36938 3.02718 6.87758 2.64787 7.41832C2.64787 7.41898 2.64749 7.4198 2.64727 7.42045C2.64727 7.41974 2.64765 7.41898 2.64787 7.41832C1.77551 8.65456 1.15679 10.0514 0.827524 11.5282C0.821016 11.5576 0.815548 11.5881 0.809259 11.6177C0.78372 11.7372 0.691847 12.3347 0.675769 12.4645C0.674511 12.4745 0.673964 12.4841 0.672761 12.4941C0.553928 13.1118 0.480374 13.7374 0.452594 14.3658C0.452594 14.389 0.451172 14.4119 0.451172 14.4351C0.4515 21.9269 6.52558 28 14.0179 28C20.728 28 26.2994 23.129 27.3901 16.7308C27.4131 16.5571 27.4315 16.3826 27.4517 16.2074C27.7214 13.8811 27.4218 11.4359 26.5718 9.39119ZM10.9353 20.0092C10.9987 20.0395 11.0583 20.0727 11.1235 20.1017C11.1262 20.1036 11.13 20.1057 11.1327 20.1074C11.0664 20.0757 11.0006 20.043 10.9353 20.0092ZM25.2277 10.101L25.2259 10.0878C25.2265 10.0927 25.2274 10.0977 25.2281 10.1024L25.2277 10.101Z" fill="url(#paint0_linear_310_14577)"/>
<path d="M26.5717 9.39114C25.982 7.97285 24.7878 6.44168 23.8501 5.95776C24.6133 7.45398 25.055 8.95491 25.2238 10.075C25.2238 10.0718 25.2244 10.0778 25.2258 10.0878C25.2265 10.0926 25.2274 10.0976 25.2281 10.1024C26.5081 13.5724 25.8107 17.1011 24.8059 19.2573C23.2513 22.5935 19.4874 26.0128 13.5961 25.846C7.23103 25.6658 1.62354 20.9429 0.576787 14.7572C0.38604 13.7818 0.576787 13.2865 0.672761 12.4944C0.555842 13.105 0.511327 13.2814 0.452594 14.3662C0.452594 14.3893 0.451172 14.4122 0.451172 14.4355C0.451336 21.9269 6.52541 28 14.0178 28C20.7278 28 26.2992 23.1289 27.3899 16.7307C27.4129 16.5571 27.4313 16.3825 27.4516 16.2074C27.7212 13.881 27.4216 11.4359 26.5717 9.39114Z" fill="url(#paint1_radial_310_14577)"/>
<path d="M26.5717 9.39114C25.982 7.97285 24.7878 6.44168 23.8501 5.95776C24.6133 7.45398 25.055 8.95491 25.2238 10.075C25.2238 10.0718 25.2244 10.0778 25.2258 10.0878C25.2265 10.0926 25.2274 10.0976 25.2281 10.1024C26.5081 13.5724 25.8107 17.1011 24.8059 19.2573C23.2513 22.5935 19.4874 26.0128 13.5961 25.846C7.23103 25.6658 1.62354 20.9429 0.576787 14.7572C0.38604 13.7818 0.576787 13.2865 0.672761 12.4944C0.555842 13.105 0.511327 13.2814 0.452594 14.3662C0.452594 14.3893 0.451172 14.4122 0.451172 14.4355C0.451336 21.9269 6.52541 28 14.0178 28C20.7278 28 26.2992 23.1289 27.3899 16.7307C27.4129 16.5571 27.4313 16.3825 27.4516 16.2074C27.7212 13.881 27.4216 11.4359 26.5717 9.39114Z" fill="url(#paint2_radial_310_14577)"/>
<path d="M19.9794 10.9858C20.009 11.0066 20.0359 11.0273 20.0637 11.0479C19.7232 10.4436 19.2992 9.8904 18.8043 9.40451C14.5872 5.18791 18.2129 0.0176953 18.2139 0.0166016C14.8059 2.01249 13.6648 5.69185 13.5586 7.53905C13.7166 7.52811 13.8743 7.51482 14.0351 7.51482C16.5783 7.51488 18.7933 8.91315 19.9794 10.9858Z" fill="url(#paint3_radial_310_14577)"/>
<path d="M14.0432 11.8278C14.021 12.1653 12.8287 13.329 12.4117 13.329C8.55395 13.329 7.92773 15.6625 7.92773 15.6625C8.09863 17.6275 9.46661 19.2457 11.1234 20.1019C11.199 20.141 11.2755 20.1762 11.3521 20.2111C11.4833 20.2692 11.6162 20.3235 11.7506 20.374C12.3187 20.5752 12.9137 20.6899 13.5159 20.7145C20.2775 21.0316 21.5875 12.6311 16.7079 10.1916C17.9575 9.97431 19.2546 10.4769 19.979 10.9857C18.7928 8.91322 16.5778 7.51489 14.0347 7.51489C13.8738 7.51489 13.7163 7.52818 13.5582 7.53912C12.1973 7.63269 10.8962 8.13405 9.82442 8.97792C10.0312 9.15292 10.2648 9.38686 10.7567 9.87144C11.6769 10.7784 14.0381 11.7177 14.0432 11.8278Z" fill="url(#paint4_radial_310_14577)"/>
<path d="M14.0432 11.8278C14.021 12.1653 12.8287 13.329 12.4117 13.329C8.55395 13.329 7.92773 15.6625 7.92773 15.6625C8.09863 17.6275 9.46661 19.2457 11.1234 20.1019C11.199 20.141 11.2755 20.1762 11.3521 20.2111C11.4833 20.2692 11.6162 20.3235 11.7506 20.374C12.3187 20.5752 12.9137 20.6899 13.5159 20.7145C20.2775 21.0316 21.5875 12.6311 16.7079 10.1916C17.9575 9.97431 19.2546 10.4769 19.979 10.9857C18.7928 8.91322 16.5778 7.51489 14.0347 7.51489C13.8738 7.51489 13.7163 7.52818 13.5582 7.53912C12.1973 7.63269 10.8962 8.13405 9.82442 8.97792C10.0312 9.15292 10.2648 9.38686 10.7567 9.87144C11.6769 10.7784 14.0381 11.7177 14.0432 11.8278Z" fill="url(#paint5_radial_310_14577)"/>
<path d="M9.19244 8.52667C9.28694 8.58765 9.38067 8.64972 9.47364 8.71294C9.16444 7.63113 9.15126 6.4861 9.43558 5.39746C8.04195 6.03204 6.95795 7.0351 6.16992 7.9208C6.23511 7.919 8.20294 7.88356 9.19244 8.52667Z" fill="url(#paint6_radial_310_14577)"/>
<path d="M0.577545 14.7573C1.6243 20.943 7.23179 25.6659 13.5969 25.8461C19.4882 26.0129 23.2521 22.5934 24.8066 19.2574C25.8115 17.101 26.5089 13.5728 25.2288 10.1026L25.2284 10.1011L25.2266 10.088C25.2252 10.0779 25.2243 10.0719 25.2246 10.0752C25.2246 10.0774 25.2254 10.0829 25.2272 10.0978C25.7084 13.2399 24.1101 16.2839 21.6115 18.3421L21.604 18.3598C16.7355 22.3239 12.0766 20.7515 11.1333 20.1078C11.0671 20.0759 11.0012 20.0431 10.9358 20.0094C8.09731 18.653 6.92473 16.067 7.17612 13.8493C4.77938 13.8493 3.96214 11.8279 3.96214 11.8279C3.96214 11.8279 6.114 10.2936 8.95004 11.628C11.5767 12.8639 14.0435 11.828 14.0438 11.8279C14.0387 11.7177 11.6775 10.7785 10.757 9.87156C10.2652 9.38698 10.0316 9.15336 9.8248 8.97803C9.71259 8.88326 9.59528 8.79467 9.47339 8.7127C9.38031 8.64959 9.28658 8.58752 9.19219 8.52643C8.20275 7.88332 6.23486 7.91876 6.16967 7.92045H6.16338C5.6256 7.23928 5.66349 4.99221 5.69417 4.52301C5.68772 4.49391 5.29299 4.72791 5.24126 4.76319C4.76669 5.10192 4.32302 5.48204 3.91544 5.89897C3.45165 6.36938 3.02788 6.87769 2.64858 7.41854C2.64858 7.4192 2.64819 7.42002 2.64797 7.42067C2.64797 7.41996 2.64836 7.4192 2.64858 7.41854C1.77622 8.65478 1.15749 10.0516 0.828228 11.5284C0.82172 11.5578 0.339878 13.6646 0.577545 14.7573Z" fill="url(#paint7_radial_310_14577)"/>
<path d="M18.803 9.40452C19.298 9.89041 19.722 10.4436 20.0625 11.0479C20.1372 11.104 20.2069 11.16 20.2661 11.2145C23.3417 14.0483 21.7302 18.0563 21.61 18.342C24.1086 16.2838 25.7069 13.2398 25.2257 10.0977C23.6917 6.27416 21.0905 4.73238 18.9664 1.37535C18.8592 1.2056 18.7516 1.03542 18.6469 0.85599C18.5935 0.764391 18.5437 0.670767 18.4975 0.57534C18.4092 0.404937 18.3412 0.224854 18.2947 0.0387017C18.2953 0.0204365 18.282 0.00468676 18.2638 0.00233525C18.2555 -7.0956e-05 18.2506 -0.00100063 18.2423 0.00140558C18.2404 0.00206181 18.2336 0.00523363 18.2316 0.00599924C18.2286 0.00720234 18.2248 0.00999135 18.2216 0.0116319C17.705 0.277517 14.5859 5.18792 18.803 9.40452Z" fill="url(#paint8_radial_310_14577)"/>
<path d="M20.2665 11.2144C20.2073 11.1599 20.1375 11.1039 20.0629 11.0478C20.0352 11.027 20.0082 11.0064 19.9786 10.9857C19.2542 10.4769 17.9571 9.97431 16.7075 10.1916C21.5871 12.6311 20.2771 21.0316 13.5155 20.7145C12.9133 20.6899 12.3183 20.5752 11.7502 20.374C11.6158 20.3235 11.483 20.2692 11.3517 20.2111C11.2751 20.1762 11.1987 20.141 11.123 20.1019C11.1258 20.1038 11.1295 20.1058 11.1322 20.1075C12.0755 20.7511 16.7344 22.3236 21.6029 18.3595L21.6104 18.3418C21.7306 18.0565 23.342 14.0483 20.2665 11.2144Z" fill="url(#paint9_radial_310_14577)"/>
<path d="M7.92713 15.6624C7.92713 15.6624 8.55334 13.3289 12.4111 13.3289C12.8282 13.3289 14.0205 12.1652 14.0425 11.8277C14.0646 11.4903 11.5756 12.8637 8.94883 11.6279C6.11279 10.2935 3.96094 11.8277 3.96094 11.8277C3.96094 11.8277 4.77817 13.8492 7.17491 13.8492C6.92352 16.0669 8.09611 18.6531 10.9346 20.0093C10.998 20.0396 11.0576 20.0727 11.1227 20.1018C9.46606 19.2456 8.09802 17.6274 7.92713 15.6624Z" fill="url(#paint10_radial_310_14577)"/>
<path d="M26.5715 9.39123C25.9819 7.97294 24.7877 6.44177 23.85 5.95785C24.6132 7.45407 25.0549 8.955 25.2237 10.0751C25.2237 10.0773 25.2246 10.0828 25.2264 10.0977C23.6923 6.27416 21.0911 4.73238 18.9671 1.37535C18.8598 1.2056 18.7523 1.03542 18.6475 0.85599C18.5942 0.764391 18.5443 0.670768 18.4981 0.57534C18.4099 0.404937 18.3418 0.224854 18.2953 0.0387017C18.296 0.0204365 18.2826 0.00468676 18.2645 0.00233525C18.2561 -7.0956e-05 18.2513 -0.00100063 18.2429 0.00140558C18.241 0.00206181 18.2342 0.00523363 18.2322 0.00599924C18.2292 0.00720234 18.2184 0.0133819 18.2171 0.0141475C14.7125 2.11192 13.6639 5.69202 13.5576 7.53922C13.7156 7.52828 13.8732 7.51499 14.0341 7.51499C16.5774 7.51499 18.7924 8.91327 19.9784 10.9858C19.254 10.477 17.9569 9.97441 16.7073 10.1917C21.5869 12.6312 20.2769 21.0317 13.5153 20.7146C12.9131 20.69 12.3181 20.5753 11.75 20.3742C11.6156 20.3236 11.4828 20.2693 11.3515 20.2113C11.2749 20.1764 11.1985 20.1411 11.1228 20.1021C11.1256 20.1039 11.1293 20.106 11.132 20.1077C11.0658 20.0758 10.9999 20.043 10.9345 20.0093C10.9979 20.0396 11.0575 20.0727 11.1227 20.1018C9.46585 19.2456 8.09781 17.6274 7.92697 15.6624C7.92697 15.6624 8.55319 13.329 12.411 13.329C12.828 13.329 14.0204 12.1653 14.0424 11.8278C14.0374 11.7176 11.6762 10.7784 10.7557 9.87143C10.2638 9.38686 10.0303 9.15323 9.82344 8.97791C9.71122 8.88314 9.59392 8.79455 9.47203 8.71257C9.16283 7.63076 9.14965 6.48574 9.43397 5.3971C8.04034 6.03168 6.95634 7.03474 6.16831 7.92044H6.16202C5.62423 7.23926 5.66213 4.9922 5.69281 4.52299C5.68636 4.4939 5.29163 4.7279 5.2399 4.76317C4.76533 5.1019 4.32166 5.48197 3.91408 5.89895C3.45045 6.36937 3.02679 6.87757 2.6476 7.41836C2.6476 7.41902 2.64721 7.41984 2.647 7.42049C2.647 7.41978 2.64738 7.41902 2.6476 7.41836C1.77524 8.6546 1.15652 10.0515 0.82725 11.5283C0.820743 11.5577 0.815274 11.5881 0.808985 11.6178C0.783447 11.7372 0.66866 12.3434 0.652637 12.4734C0.651379 12.4834 0.65384 12.4634 0.652637 12.4734C0.547912 13.0997 0.48114 13.7317 0.452594 14.3662C0.452594 14.3893 0.451172 14.4122 0.451172 14.4355C0.451172 21.9269 6.52525 28 14.0176 28C20.7276 28 26.299 23.129 27.3898 16.7308C27.4127 16.5571 27.4312 16.3826 27.4514 16.2074C27.7211 13.8811 27.4215 11.436 26.5715 9.39123ZM25.2257 10.0879C25.2264 10.0927 25.2272 10.0977 25.228 10.1025L25.2275 10.101L25.2257 10.0879Z" fill="url(#paint11_linear_310_14577)"/>
</g>
<defs>
<linearGradient id="paint0_linear_310_14577" x1="24.0853" y1="4.33156" x2="2.3019" y2="25.3522" gradientUnits="userSpaceOnUse">
<stop offset="0.05" stop-color="#FFF339"/>
<stop offset="0.37" stop-color="#FF9800"/>
<stop offset="0.53" stop-color="#FF3346"/>
<stop offset="0.7" stop-color="#FF0D8A"/>
</linearGradient>
<radialGradient id="paint1_radial_310_14577" cx="0" cy="0" r="1" gradientUnits="userSpaceOnUse" gradientTransform="translate(24.2197 5.95921) scale(27.7469 28.2141)">
<stop offset="0.13" stop-color="#FFBD44"/>
<stop offset="0.28" stop-color="#FF9800"/>
<stop offset="0.47" stop-color="#FF3450"/>
<stop offset="0.78" stop-color="#FF027B"/>
<stop offset="0.86" stop-color="#FF0083"/>
</radialGradient>
<radialGradient id="paint2_radial_310_14577" cx="0" cy="0" r="1" gradientUnits="userSpaceOnUse" gradientTransform="translate(13.7273 14.7847) scale(28.4405 28.2141)">
<stop offset="0.3" stop-color="#AF0611"/>
<stop offset="0.35" stop-color="#CE1223" stop-opacity="0.74"/>
<stop offset="0.43" stop-color="#FD243B" stop-opacity="0.34"/>
<stop offset="0.5" stop-color="#FF304B" stop-opacity="0.09"/>
<stop offset="0.53" stop-color="#FF3450" stop-opacity="0"/>
</radialGradient>
<radialGradient id="paint3_radial_310_14577" cx="0" cy="0" r="1" gradientUnits="userSpaceOnUse" gradientTransform="translate(16.6808 -1.30658) scale(9.1068 15.4611)">
<stop offset="0.13" stop-color="#FFF339"/>
<stop offset="0.53" stop-color="#FF9800"/>
</radialGradient>
<radialGradient id="paint4_radial_310_14577" cx="0" cy="0" r="1" gradientUnits="userSpaceOnUse" gradientTransform="translate(10.6698 22.0619) scale(12.0517 13.2088)">
<stop offset="0.35" stop-color="#008EE9"/>
<stop offset="0.67" stop-color="#A059FF"/>
<stop offset="1" stop-color="#DF36EA"/>
</radialGradient>
<radialGradient id="paint5_radial_310_14577" cx="0" cy="0" r="1" gradientUnits="userSpaceOnUse" gradientTransform="translate(13.5676 11.8715) scale(6.39886 7.79248)">
<stop offset="0.21" stop-color="#A059FF" stop-opacity="0"/>
<stop offset="0.97" stop-color="#80008E" stop-opacity="0.6"/>
</radialGradient>
<radialGradient id="paint6_radial_310_14577" cx="0" cy="0" r="1" gradientUnits="userSpaceOnUse" gradientTransform="translate(13.1079 2.08159) scale(9.58092 9.61497)">
<stop offset="0.1" stop-color="#FFE200"/>
<stop offset="0.79" stop-color="#FF7232"/>
</radialGradient>
<radialGradient id="paint7_radial_310_14577" cx="0" cy="0" r="1" gradientUnits="userSpaceOnUse" gradientTransform="translate(21.8549 -4.22394) scale(45.7415 38.3975)">
<stop offset="0.11" stop-color="#FFF339"/>
<stop offset="0.46" stop-color="#FF9800"/>
<stop offset="0.72" stop-color="#FF3346"/>
<stop offset="0.9" stop-color="#FF0D8A"/>
</radialGradient>
<radialGradient id="paint8_radial_310_14577" cx="0" cy="0" r="1" gradientUnits="userSpaceOnUse" gradientTransform="translate(17.9856 -3.4731) rotate(83.9544) scale(30.0712 30.2963)">
<stop stop-color="#FFF339"/>
<stop offset="0.3" stop-color="#FF9800"/>
<stop offset="0.57" stop-color="#FF3346"/>
<stop offset="0.74" stop-color="#FF0D8A"/>
</radialGradient>
<radialGradient id="paint9_radial_310_14577" cx="0" cy="0" r="1" gradientUnits="userSpaceOnUse" gradientTransform="translate(13.2046 5.53994) scale(26.2618 25.8004)">
<stop offset="0.14" stop-color="#FFF339"/>
<stop offset="0.48" stop-color="#FF9800"/>
<stop offset="0.66" stop-color="#FF3346"/>
<stop offset="0.9" stop-color="#FF0D8A"/>
</radialGradient>
<radialGradient id="paint10_radial_310_14577" cx="0" cy="0" r="1" gradientUnits="userSpaceOnUse" gradientTransform="translate(20.0215 7.04713) scale(31.5658 28.2394)">
<stop offset="0.09" stop-color="#FFF339"/>
<stop offset="0.63" stop-color="#FF9800"/>
</radialGradient>
<linearGradient id="paint11_linear_310_14577" x1="22.7496" y1="4.49164" x2="5.32768" y2="23.5273" gradientUnits="userSpaceOnUse">
<stop offset="0.17" stop-color="#FFF339" stop-opacity="0.8"/>
<stop offset="0.6" stop-color="#FFF339" stop-opacity="0"/>
</linearGradient>
<clipPath id="clip0_310_14577">
<rect width="28" height="28" fill="white"/>
</clipPath>
</defs>
</svg>
