<svg width="28" height="28" viewBox="0 0 28 28" fill="none" xmlns="http://www.w3.org/2000/svg">
<g clip-path="url(#clip0_310_14558)">
<path d="M26.8314 14.0005C26.8314 14.8755 26.3414 15.6455 25.6297 16.0422L19.563 19.4138L14.4297 14.0005L19.563 8.58716L25.6297 11.9588C26.3414 12.3555 26.8314 13.1255 26.8314 14.0005Z" fill="#FFC107"/>
<path d="M14.431 14.0005L1.83102 27.2888C1.41102 26.8688 1.16602 26.2972 1.16602 25.6672V2.33382C1.16602 1.70382 1.41102 1.13216 1.83102 0.712158L14.431 14.0005Z" fill="#03A9F4"/>
<path d="M14.432 14L19.5654 19.4133C4.19687 27.8425 3.55286 29.1048 1.83203 27.2883L14.432 14Z" fill="#F44336"/>
<path d="M19.5654 8.58673L14.432 14.0001L1.83203 0.711726C2.55303 -0.0501072 3.7092 -0.216941 4.63203 0.291726L19.5654 8.58673Z" fill="#4CAF50"/>
</g>
<defs>
<clipPath id="clip0_310_14558">
<rect width="28" height="28" fill="white"/>
</clipPath>
</defs>
</svg>
