<svg width="28" height="28" viewBox="0 0 28 28" fill="none" xmlns="http://www.w3.org/2000/svg">
<g clip-path="url(#clip0_310_14565)">
<path d="M9.39258 6.1111C10.6771 4.59386 12.3361 3.68035 14.1491 3.68035C18.2248 3.68035 21.5288 8.30035 21.5288 14.0001C21.5288 19.6999 18.2248 24.3216 14.1491 24.3216C12.3361 24.3216 10.6771 23.4064 9.39258 21.8909C11.4016 24.4984 14.3871 26.1521 17.7208 26.1521C19.7718 26.1521 21.6898 25.5256 23.3313 24.4371C26.1961 21.8734 28.0003 18.1476 28.0003 14.0001C28.0003 9.8526 26.1961 6.12685 23.3313 3.56485C21.6898 2.47635 19.7718 1.84985 17.7208 1.84985C14.3871 1.8481 11.3998 3.50361 9.39258 6.1111Z" fill="#D32F2F"/>
<path d="M14 0C6.2685 0 0 6.2685 0 14C0 21.5075 5.9115 27.636 13.3333 27.9843C13.5538 27.9948 13.776 28 14 28C17.584 28 20.853 26.6525 23.3293 24.437C21.6877 25.5255 19.7698 26.152 17.7188 26.152C14.385 26.152 11.3995 24.4982 9.3905 21.8907C7.84175 20.0637 6.839 17.3635 6.7725 14.3308C6.7725 14.3238 6.7725 13.6797 6.7725 13.671C6.84075 10.64 7.8435 7.938 9.3905 6.111C11.3995 3.5035 14.385 1.84975 17.7188 1.84975C19.7698 1.84975 21.6877 2.47625 23.3293 3.56475C20.867 1.35975 17.6172 0.014 14.0525 0C14.035 0 14.0175 0 14 0Z" fill="#F44336"/>
</g>
<defs>
<clipPath id="clip0_310_14565">
<rect width="28" height="28" fill="white"/>
</clipPath>
</defs>
</svg>
