<svg width="28" height="28" viewBox="0 0 28 28" fill="none" xmlns="http://www.w3.org/2000/svg">
<g clip-path="url(#clip0_314_15551)">
<path opacity="0.53" d="M27.4135 15.0834C27.4135 22.2165 21.4083 27.999 14.0007 27.999C6.59307 27.999 0.587891 22.2165 0.587891 15.0834C0.587891 7.95027 6.59301 2.16772 14.0007 2.16772C21.4084 2.16772 27.4135 7.95027 27.4135 15.0834Z" fill="black"/>
<path d="M27.9233 13.9434C27.9233 21.6332 21.6896 27.867 13.9997 27.867C6.30994 27.867 0.0761719 21.6332 0.0761719 13.9434C0.0761719 6.2536 6.30999 0.0197754 13.9998 0.0197754C21.6896 0.0197754 27.9234 6.2536 27.9233 13.9434Z" fill="url(#paint0_linear_314_15551)" stroke="#CDCDCD" stroke-width="0.0413406" stroke-miterlimit="11.3386" stroke-linecap="round" stroke-linejoin="round"/>
<path d="M26.833 13.9434C26.833 21.0306 21.0877 26.7759 14.0005 26.7759C6.9133 26.7759 1.16797 21.0306 1.16797 13.9434C1.16797 6.85617 6.9133 1.11084 14.0005 1.11084C21.0877 1.11079 26.833 6.85612 26.833 13.9434Z" fill="url(#paint1_radial_314_15551)"/>
<path d="M13.9992 1.78003C13.8956 1.78003 13.8121 1.86348 13.8121 1.96714V4.12521C13.8121 4.22888 13.8956 4.31232 13.9992 4.31232C14.1029 4.31232 14.1863 4.22888 14.1863 4.12521V1.96714C14.1863 1.86348 14.1029 1.78003 13.9992 1.78003ZM12.7752 1.85741C12.7628 1.8561 12.7501 1.8561 12.7372 1.85757C12.6341 1.86834 12.5598 1.95998 12.5705 2.0631L12.6648 2.96593C12.6756 3.06899 12.7673 3.14337 12.8704 3.1326C12.9735 3.12184 13.0478 3.03019 13.037 2.92707L12.9428 2.02425C12.9334 1.93402 12.862 1.86583 12.7752 1.85741ZM15.2317 1.85828C15.1449 1.86664 15.0736 1.93484 15.0641 2.02501L14.9691 2.92778C14.9582 3.03085 15.0326 3.1226 15.1357 3.13348C15.2387 3.1443 15.3304 3.07003 15.3412 2.96697L15.4362 2.06414C15.4471 1.96108 15.3727 1.86938 15.2697 1.85856C15.2568 1.85719 15.2441 1.85719 15.2317 1.85828ZM11.518 2.03977C11.5055 2.03988 11.4929 2.04108 11.4802 2.04376C11.3788 2.06523 11.3145 2.16414 11.3359 2.26557L11.7828 4.37681C11.8043 4.47823 11.9032 4.54255 12.0047 4.52113C12.1061 4.49965 12.1704 4.4008 12.149 4.29937L11.702 2.18808C11.6832 2.09933 11.6051 2.039 11.518 2.03966L11.518 2.03977ZM16.489 2.04152C16.4018 2.04064 16.3237 2.10103 16.3049 2.18977L15.8564 4.30074C15.8349 4.40211 15.8991 4.50108 16.0006 4.52266C16.1019 4.54419 16.2009 4.47987 16.2224 4.3785L16.6709 2.26754C16.6924 2.16617 16.6282 2.0672 16.5268 2.04567C16.5141 2.04299 16.5014 2.04168 16.489 2.04168V2.04152ZM10.318 2.37809C10.2938 2.37585 10.2688 2.37853 10.2441 2.38672C10.1456 2.41875 10.0919 2.52383 10.124 2.62242L10.4045 3.48579C10.4366 3.58437 10.5417 3.63798 10.6403 3.60595C10.7389 3.57393 10.7924 3.46874 10.7603 3.37015L10.4798 2.50678C10.4558 2.43284 10.3907 2.38421 10.318 2.37809ZM17.6821 2.37852C17.6094 2.3847 17.5443 2.43328 17.5203 2.50722L17.2396 3.37048C17.2076 3.46906 17.2612 3.5742 17.3597 3.60628C17.4583 3.63831 17.5634 3.58475 17.5955 3.48622L17.8762 2.62285C17.9082 2.52427 17.8546 2.41913 17.7561 2.38705C17.7315 2.37907 17.7063 2.37645 17.6821 2.37852ZM9.13147 2.81231C9.10715 2.81275 9.08256 2.81811 9.0589 2.8286C8.96425 2.87068 8.92184 2.98079 8.96392 3.07555L9.84046 5.04755C9.88254 5.14225 9.99265 5.1846 10.0874 5.14252C10.1821 5.10045 10.2246 4.99033 10.1824 4.89557L9.30585 2.92358C9.2742 2.85253 9.20437 2.81089 9.13147 2.81231ZM18.8821 2.81893C18.8092 2.81761 18.7393 2.85898 18.7076 2.92997L17.8284 4.90076C17.7862 4.99541 17.8284 5.10564 17.923 5.14782C18.0177 5.19007 18.1279 5.14782 18.1702 5.05318L19.0493 3.08238C19.0916 2.98773 19.0494 2.87751 18.9547 2.83532C18.9311 2.82477 18.9064 2.81942 18.8821 2.81893ZM8.03005 3.39507C7.99415 3.39239 7.95715 3.40043 7.92349 3.41988C7.83371 3.47169 7.80321 3.58568 7.85502 3.67547L8.30892 4.46162C8.36072 4.55141 8.47472 4.5819 8.56445 4.53009C8.65418 4.47829 8.68473 4.36429 8.63292 4.27451L8.17902 3.48835C8.14662 3.43223 8.08995 3.39922 8.03005 3.39507ZM19.9684 3.39507C19.9085 3.39906 19.8519 3.43223 19.8195 3.48835L19.3655 4.27451C19.3137 4.36429 19.3443 4.47823 19.434 4.53009C19.5238 4.5819 19.6378 4.55141 19.6896 4.46162L20.1435 3.67547C20.1953 3.58568 20.1648 3.47174 20.0751 3.41988C20.0414 3.40043 20.0043 3.39256 19.9684 3.39507ZM6.96055 4.06209C6.92454 4.06341 6.88847 4.07499 6.85705 4.09778C6.77317 4.15866 6.75459 4.27516 6.81546 4.3591L8.08262 6.1059C8.1435 6.18978 8.26012 6.20836 8.344 6.14748C8.42788 6.08661 8.44646 5.9701 8.38559 5.88616L7.11832 4.13937C7.08029 4.08696 7.02056 4.06007 6.96055 4.06209ZM21.0513 4.0716C20.9913 4.06936 20.9315 4.09625 20.8934 4.14866L19.6238 5.89376C19.5628 5.97759 19.5813 6.09415 19.6651 6.15514C19.7489 6.21612 19.8655 6.19776 19.9265 6.11399L21.196 4.36888C21.257 4.28505 21.2385 4.16849 21.1547 4.10751C21.1233 4.08461 21.0873 4.07291 21.0513 4.0716ZM6.00461 4.86382C5.95685 4.86115 5.9081 4.8771 5.86958 4.9118C5.79252 4.98115 5.78635 5.09897 5.8557 5.17602L6.4631 5.85075C6.53245 5.9278 6.65027 5.93398 6.72732 5.86463C6.80437 5.79528 6.81055 5.67741 6.7412 5.60036L6.13391 4.92563C6.09921 4.8871 6.05237 4.86628 6.00461 4.86382ZM21.9952 4.86513C21.9475 4.86781 21.9006 4.88847 21.8659 4.927L21.2585 5.60156C21.1892 5.67861 21.1953 5.79649 21.2724 5.86583C21.3494 5.93518 21.4672 5.92895 21.5366 5.85195L22.144 5.17739C22.2134 5.10034 22.2072 4.98246 22.1302 4.91311C22.0916 4.87847 22.0431 4.86268 21.9952 4.86513ZM5.08834 5.74392C5.04058 5.74659 4.9938 5.76725 4.95916 5.80578C4.88981 5.88283 4.89604 6.00065 4.97304 6.07L6.57693 7.51383C6.65398 7.58317 6.7718 7.577 6.84115 7.49995C6.9105 7.42289 6.90438 7.30507 6.82732 7.23573L5.22337 5.7919C5.18485 5.75725 5.1361 5.7414 5.08834 5.74392ZM22.9159 5.75025C22.8681 5.74758 22.8193 5.76348 22.7808 5.79813L21.1759 7.24081C21.0988 7.3101 21.0925 7.42792 21.1618 7.50503C21.2311 7.58214 21.349 7.58837 21.426 7.51907L23.031 6.07639C23.1081 6.0071 23.1143 5.88928 23.045 5.81217C23.0104 5.77364 22.9636 5.75277 22.9159 5.75025ZM4.3264 6.72363C4.26639 6.72139 4.20661 6.74844 4.16852 6.80085C4.10759 6.88473 4.12606 7.00124 4.20994 7.06217L4.94435 7.59574C5.02823 7.65667 5.14468 7.63826 5.20561 7.55443C5.26655 7.47055 5.24813 7.35398 5.1643 7.29305L4.4299 6.75948C4.39853 6.73658 4.36241 6.72494 4.3264 6.72363ZM23.6771 6.73046C23.6411 6.73177 23.605 6.7433 23.5736 6.76615L22.8389 7.29923C22.755 7.3601 22.7364 7.47672 22.7973 7.56061C22.8582 7.64449 22.9747 7.66296 23.0586 7.60214L23.7934 7.06905C23.8772 7.00818 23.8957 6.89167 23.8349 6.80773C23.7969 6.75533 23.7371 6.72844 23.6771 6.73046ZM3.6144 7.7687C3.55451 7.77269 3.49789 7.80586 3.46549 7.86198C3.41368 7.95177 3.44417 8.06571 3.53396 8.11757L5.40284 9.19658C5.49257 9.24838 5.60656 9.21789 5.65842 9.1281C5.71023 9.03832 5.67973 8.92438 5.58995 8.87252L3.72107 7.79351C3.68741 7.77406 3.6503 7.76619 3.6144 7.7687ZM24.384 7.7687C24.3481 7.76602 24.311 7.77406 24.2774 7.79351L22.4085 8.87252C22.3188 8.92433 22.2882 9.03832 22.34 9.1281C22.3918 9.21789 22.5058 9.24838 22.5956 9.19658L24.4646 8.11757C24.5543 8.06576 24.5849 7.95177 24.5331 7.86198C24.5007 7.80586 24.4439 7.77291 24.384 7.7687ZM3.07607 8.88263C3.00317 8.88083 2.93322 8.92258 2.90158 8.99356C2.85934 9.08821 2.90158 9.19843 2.99623 9.24062L3.82534 9.61042C3.91999 9.65266 4.03021 9.61047 4.07245 9.51577C4.11469 9.42112 4.0724 9.3109 3.97775 9.26871L3.1487 8.89891C3.12503 8.88831 3.10039 8.88312 3.07607 8.88263ZM24.926 8.89028C24.9017 8.89072 24.877 8.89607 24.8533 8.90656L24.0241 9.27576C23.9294 9.31795 23.887 9.42806 23.9292 9.52277C23.9714 9.61747 24.0816 9.65982 24.1763 9.61763L25.0056 9.24838C25.1003 9.20625 25.1425 9.09608 25.1004 9.00138C25.0688 8.93039 24.9989 8.88886 24.926 8.89028ZM2.59627 10.0468C2.52359 10.0529 2.45845 10.1015 2.43435 10.1754C2.40227 10.2739 2.45566 10.3791 2.55424 10.4112L4.60614 11.0798C4.70466 11.1119 4.80991 11.0585 4.84199 10.9599C4.87407 10.8614 4.82068 10.7562 4.7221 10.7241L2.67021 10.0555C2.64561 10.0474 2.62048 10.0448 2.59627 10.0468ZM25.405 10.0549C25.3807 10.0526 25.3557 10.0553 25.3311 10.0635L23.2787 10.7306C23.1802 10.7627 23.1266 10.8679 23.1587 10.9664C23.1908 11.065 23.2959 11.1186 23.3945 11.0865L25.4468 10.4194C25.5453 10.3873 25.5989 10.2821 25.5669 10.1836C25.5428 10.1096 25.4776 10.061 25.405 10.0549ZM2.29735 11.269C2.21019 11.2681 2.13204 11.3286 2.11319 11.4173C2.09166 11.5186 2.15592 11.6176 2.25735 11.6392L3.14531 11.8279C3.24668 11.8494 3.34564 11.7851 3.36717 11.6838C3.38871 11.5824 3.32444 11.4835 3.22302 11.4619L2.33511 11.2732C2.32243 11.2705 2.30975 11.2692 2.29735 11.2692V11.269ZM25.7015 11.2708C25.6891 11.2709 25.6765 11.2726 25.6638 11.2748L24.7759 11.4634C24.6745 11.4849 24.6102 11.5838 24.6318 11.6852C24.6533 11.7866 24.7522 11.851 24.8536 11.8294L25.7415 11.6408C25.8429 11.6192 25.9073 11.5203 25.8857 11.4189C25.8669 11.3302 25.7887 11.2698 25.7016 11.2705L25.7015 11.2708ZM2.07105 12.4982C1.98427 12.5066 1.91285 12.5746 1.90334 12.6648C1.89247 12.7679 1.96662 12.8597 2.06969 12.8706L4.21579 13.0975C4.31886 13.1083 4.41066 13.0341 4.42154 12.9311C4.43241 12.828 4.3582 12.7362 4.25514 12.7253L2.10903 12.4984C2.09614 12.4971 2.08346 12.4971 2.07105 12.4982ZM25.9294 12.5144C25.917 12.5131 25.9043 12.5131 25.8914 12.5146L23.745 12.7386C23.642 12.7494 23.5677 12.841 23.5784 12.9441C23.5891 13.0471 23.6808 13.1215 23.7839 13.1107L25.9302 12.8867C26.0333 12.876 26.1076 12.7843 26.0969 12.6812C26.0874 12.591 26.0161 12.5228 25.9294 12.5144ZM2.03471 13.7566C1.93105 13.7566 1.84766 13.8401 1.84766 13.9437C1.84766 14.0474 1.9311 14.1308 2.03471 14.1308H2.94251C3.04618 14.1308 3.12968 14.0474 3.12968 13.9437C3.12968 13.8401 3.04618 13.7566 2.94251 13.7566H2.03471ZM25.0559 13.7566C24.9523 13.7566 24.8688 13.8401 24.8688 13.9437C24.8688 14.0474 24.9523 14.1308 25.0559 14.1308H25.9637C26.0673 14.1308 26.1508 14.0474 26.1508 13.9437C26.1508 13.8401 26.0673 13.7566 25.9637 13.7566H25.0559ZM4.25262 14.7765C4.24022 14.7752 4.22754 14.7752 4.21464 14.7767L2.06821 15.0007C1.96515 15.0115 1.89083 15.1031 1.90154 15.2062C1.9123 15.3092 2.00395 15.3836 2.10707 15.3729L4.2535 15.1489C4.35656 15.1381 4.43088 15.0464 4.42017 14.9433C4.41072 14.8532 4.3394 14.785 4.25262 14.7765ZM23.7447 14.7898C23.6579 14.7981 23.5865 14.8662 23.577 14.9563C23.5661 15.0594 23.6402 15.1512 23.7433 15.1621L25.8894 15.389C25.9925 15.3998 26.0843 15.3256 26.0951 15.2226C26.106 15.1195 26.0318 15.0277 25.9287 15.0168L23.7828 14.7899C23.7699 14.7886 23.7571 14.7886 23.7447 14.7898ZM3.18274 16.0537C3.17028 16.0538 3.15766 16.055 3.14498 16.0577L2.25702 16.2463C2.15565 16.2679 2.09133 16.3668 2.11286 16.4683C2.13439 16.5696 2.23336 16.6339 2.33473 16.6124L3.22269 16.4238C3.32406 16.4023 3.38838 16.3033 3.36679 16.202C3.34794 16.1132 3.26985 16.0529 3.18269 16.0536L3.18274 16.0537ZM24.8155 16.0555C24.7283 16.0546 24.6502 16.115 24.6314 16.2038C24.6098 16.3051 24.674 16.4041 24.7754 16.4257L25.6634 16.6144C25.7647 16.6359 25.8637 16.5717 25.8852 16.4703C25.9068 16.369 25.8425 16.2699 25.7411 16.2484L24.8532 16.0597C24.8406 16.057 24.8279 16.0557 24.8155 16.0557V16.0555ZM4.678 16.7924C4.65379 16.7901 4.62876 16.7928 4.60411 16.801L2.55178 17.4681C2.4532 17.5002 2.39965 17.6054 2.43173 17.7039C2.4638 17.8025 2.56894 17.8561 2.66753 17.824L4.7198 17.1569C4.81839 17.1248 4.87199 17.0196 4.83997 16.9211C4.81587 16.8472 4.75068 16.7985 4.678 16.7924ZM23.3184 16.799C23.2457 16.8051 23.1806 16.8537 23.1565 16.9276C23.1244 17.0261 23.1778 17.1313 23.2764 17.1634L25.3282 17.832C25.4268 17.8641 25.532 17.8107 25.5641 17.7121C25.5962 17.6136 25.5428 17.5084 25.4442 17.4763L23.3924 16.8077C23.3678 16.7996 23.3427 16.797 23.3184 16.799ZM3.89485 18.2536C3.87053 18.254 3.84594 18.2593 3.82228 18.2698L2.9929 18.6391C2.89819 18.6812 2.85595 18.7914 2.89808 18.8861C2.94027 18.9808 3.05039 19.023 3.14509 18.9809L3.97447 18.6117C4.06917 18.5695 4.11141 18.4594 4.06928 18.3647C4.03764 18.2937 3.96775 18.2522 3.89485 18.2536ZM24.1006 18.2607C24.0277 18.2589 23.9578 18.3006 23.9261 18.3716C23.8839 18.4663 23.9261 18.5765 24.0208 18.6187L24.8498 18.9885C24.9445 19.0307 25.0547 18.9885 25.097 18.8938C25.1392 18.7992 25.097 18.689 25.0023 18.6468L24.1733 18.2769C24.1496 18.2664 24.125 18.2612 24.1006 18.2607ZM5.50956 18.6662C5.47366 18.6635 5.43655 18.6715 5.40289 18.691L3.53401 19.77C3.44428 19.8218 3.41373 19.9358 3.46554 20.0256C3.51735 20.1154 3.63134 20.1458 3.72112 20.094L5.59 19.0151C5.67973 18.9633 5.71028 18.8492 5.65848 18.7594C5.62602 18.7033 5.5694 18.6703 5.50956 18.6662ZM22.489 18.6662C22.4291 18.6702 22.3724 18.7033 22.34 18.7594C22.2882 18.8492 22.3187 18.9633 22.4085 19.0151L24.2774 20.094C24.3671 20.1458 24.4812 20.1154 24.533 20.0256C24.5848 19.9358 24.5543 19.8218 24.4645 19.77L22.5955 18.691C22.5619 18.6715 22.5249 18.6637 22.489 18.6662ZM5.04342 20.2496C5.00741 20.2509 4.97134 20.2626 4.93992 20.2854L4.20519 20.8185C4.12131 20.8794 4.10273 20.9959 4.1636 21.0798C4.22448 21.1637 4.34099 21.1823 4.42487 21.1214L5.15966 20.5883C5.24354 20.5274 5.26212 20.4109 5.20124 20.3271C5.16321 20.2745 5.10337 20.2475 5.04342 20.2496ZM22.9506 20.2559C22.8906 20.2537 22.8309 20.2807 22.7928 20.3331C22.7318 20.417 22.7503 20.5336 22.8342 20.5945L23.5686 21.1281C23.6525 21.189 23.769 21.1705 23.8299 21.0867C23.8908 21.0028 23.8724 20.8863 23.7885 20.8253L23.0541 20.2918C23.0227 20.2689 22.9867 20.2572 22.9506 20.2559ZM6.70743 20.3205C6.65967 20.3178 6.61098 20.3337 6.57239 20.3684L4.96746 21.8111C4.89036 21.8803 4.88413 21.9982 4.95342 22.0753C5.02271 22.1524 5.14053 22.1586 5.21764 22.0893L6.82257 20.6466C6.89968 20.5773 6.90591 20.4595 6.83661 20.3824C6.80202 20.3439 6.75519 20.3231 6.70743 20.3205ZM21.2866 20.3256C21.2388 20.3283 21.192 20.349 21.1573 20.3875C21.0879 20.4645 21.0942 20.5824 21.1712 20.6517L22.7751 22.0955C22.8521 22.1649 22.97 22.1587 23.0393 22.0817C23.1087 22.0046 23.1024 21.8868 23.0254 21.8174L21.4215 20.3736C21.383 20.339 21.3343 20.3232 21.2866 20.3256ZM8.23001 21.6962C8.17006 21.694 8.11017 21.7209 8.07208 21.7733L6.80257 23.5184C6.74158 23.6022 6.75994 23.7188 6.84372 23.7798C6.92755 23.8408 7.04411 23.8224 7.10509 23.7386L8.3746 21.9935C8.43559 21.9096 8.41723 21.7931 8.33345 21.7321C8.30203 21.7092 8.26596 21.6975 8.23001 21.6962ZM19.758 21.7041C19.722 21.7054 19.686 21.717 19.6545 21.7398C19.5707 21.8007 19.5521 21.9172 19.613 22.0011L20.8801 23.7479C20.941 23.8318 21.0575 23.8504 21.1414 23.7895C21.2253 23.7286 21.2438 23.6121 21.183 23.5282L19.9158 21.7814C19.8778 21.729 19.818 21.702 19.758 21.7041ZM6.59114 21.9736C6.54338 21.9763 6.49654 21.997 6.46184 22.0355L5.85444 22.7101C5.78509 22.7871 5.79121 22.905 5.86827 22.9743C5.94532 23.0437 6.06314 23.0374 6.13248 22.9604L6.73994 22.2858C6.80929 22.2088 6.80306 22.0909 6.72606 22.0216C6.68759 21.9869 6.63896 21.9711 6.59114 21.9736ZM21.4062 21.9745C21.3584 21.9718 21.3098 21.9878 21.2713 22.0225C21.1942 22.0918 21.188 22.2097 21.2573 22.2867L21.8646 22.9614C21.934 23.0385 22.0518 23.0447 22.1289 22.9753C22.2059 22.906 22.2121 22.7881 22.1427 22.711L21.5354 22.0364C21.5007 21.9978 21.4539 21.977 21.4062 21.9745ZM10.0028 22.7229C9.92992 22.7211 9.86008 22.7628 9.82838 22.8338L8.94911 24.8046C8.90687 24.8993 8.94905 25.0095 9.04376 25.0517C9.13841 25.0939 9.24863 25.0517 9.29082 24.957L10.1701 22.9862C10.2123 22.8916 10.1701 22.7814 10.0754 22.7392C10.0518 22.7286 10.0271 22.7233 10.0028 22.7229ZM17.9838 22.7283C17.9595 22.7287 17.9348 22.734 17.9111 22.7445C17.8165 22.7866 17.7741 22.8967 17.8162 22.9915L18.6926 24.9635C18.7347 25.0581 18.8449 25.1005 18.9396 25.0585C19.0343 25.0164 19.0767 24.9063 19.0346 24.8116L18.1581 22.8396C18.1266 22.7685 18.0567 22.7269 17.9838 22.7283ZM8.45778 23.3322C8.39794 23.3362 8.34127 23.3694 8.30886 23.4255L7.85496 24.2116C7.80316 24.3014 7.83365 24.4154 7.92344 24.4672C8.01317 24.519 8.12716 24.4885 8.17897 24.3988L8.63287 23.6126C8.68467 23.5228 8.65418 23.4089 8.56439 23.357C8.53078 23.3376 8.49368 23.3297 8.45778 23.3322ZM19.5407 23.3322C19.5048 23.3295 19.4678 23.3376 19.4341 23.357C19.3444 23.4088 19.3138 23.5228 19.3656 23.6126L19.8195 24.3988C19.8713 24.4885 19.9853 24.519 20.0751 24.4672C20.1649 24.4154 20.1954 24.3014 20.1436 24.2116L19.6897 23.4255C19.6572 23.3694 19.6005 23.3364 19.5407 23.3322ZM11.9602 23.3604C11.873 23.3595 11.7949 23.4199 11.7761 23.5087L11.3276 25.6196C11.306 25.721 11.3703 25.82 11.4717 25.8415C11.5731 25.863 11.6721 25.7987 11.6936 25.6974L12.1421 23.5864C12.1636 23.4851 12.0994 23.3861 11.9979 23.3646C11.9853 23.3619 11.9726 23.3606 11.9602 23.3606V23.3604ZM16.0317 23.3617C16.0192 23.3618 16.0066 23.363 15.9939 23.3657C15.8925 23.3872 15.8282 23.486 15.8496 23.5875L16.2966 25.6988C16.3181 25.8002 16.417 25.8645 16.5184 25.8431C16.6198 25.8216 16.6841 25.7227 16.6627 25.6213L16.2157 23.5101C16.1969 23.4213 16.1188 23.361 16.0317 23.3617ZM13.9992 23.5746C13.8956 23.5746 13.8121 23.6581 13.8121 23.7617V25.9198C13.8121 26.0235 13.8956 26.1069 13.9992 26.1069C14.1029 26.1069 14.1863 26.0235 14.1863 25.9198V23.7617C14.1863 23.6581 14.1029 23.5746 13.9992 23.5746ZM10.5649 24.272C10.4922 24.2782 10.427 24.3267 10.4029 24.4007L10.1223 25.264C10.0903 25.3626 10.1439 25.4678 10.2424 25.4998C10.341 25.5319 10.4461 25.4783 10.4782 25.3797L10.7588 24.5164C10.7909 24.4178 10.7373 24.3127 10.6387 24.2806C10.6142 24.2726 10.5891 24.27 10.5649 24.272ZM17.4321 24.2724C17.4079 24.2702 17.3829 24.2729 17.3582 24.281C17.2596 24.313 17.206 24.4182 17.238 24.5168L17.5185 25.3802C17.5506 25.4788 17.6558 25.5323 17.7543 25.5002C17.8529 25.4682 17.9065 25.3631 17.8745 25.2645L17.5939 24.4012C17.5699 24.3272 17.5048 24.2786 17.4321 24.2724ZM12.8248 24.7533C12.7381 24.7616 12.6666 24.8297 12.6571 24.9199L12.5623 25.8228C12.5514 25.9258 12.6257 26.0175 12.7288 26.0283C12.8319 26.0392 12.9236 25.9649 12.9345 25.8618L13.0293 24.9591C13.0402 24.856 12.9659 24.7642 12.8628 24.7534C12.8499 24.7521 12.8373 24.7521 12.8248 24.7533ZM15.1661 24.7542C15.1537 24.7529 15.141 24.7529 15.1281 24.7544C15.025 24.7651 14.9506 24.8568 14.9614 24.9598L15.0557 25.8628C15.0665 25.9659 15.1581 26.0401 15.2612 26.0293C15.3643 26.0186 15.4387 25.9269 15.4279 25.8238L15.3337 24.921C15.3242 24.8308 15.2529 24.7626 15.1661 24.7542Z" fill="#F4F1F2"/>
<path opacity="0.409" d="M22.7688 6.45972L12.5326 12.407L6.06055 22.5959L15.5287 15.583L22.7688 6.45972Z" fill="black"/>
<path d="M15.4672 15.4796L12.5332 12.407L22.9413 5.40552L15.4672 15.4796Z" fill="#FF504F"/>
<path d="M15.4667 15.4796L12.5327 12.407L5.05859 22.4811L15.4667 15.4796Z" fill="#F0F0F0"/>
<path d="M5.05859 22.4813L15.4667 15.4798L13.9997 13.9434L5.05859 22.4813Z" fill="#B5B5B5"/>
<path d="M22.9411 5.40552L14 13.9434L15.4669 15.4797L15.4671 15.4796L22.9411 5.40552Z" fill="#C43E3D"/>
</g>
<defs>
<linearGradient id="paint0_linear_314_15551" x1="13.9998" y1="27.8667" x2="13.9998" y2="0.0194799" gradientUnits="userSpaceOnUse">
<stop stop-color="#BDBDBD"/>
<stop offset="1" stop-color="white"/>
</linearGradient>
<radialGradient id="paint1_radial_314_15551" cx="0" cy="0" r="1" gradientUnits="userSpaceOnUse" gradientTransform="translate(14.058 12.081) scale(13.9233)">
<stop stop-color="#00C2E8"/>
<stop offset="0.25" stop-color="#00B8ED"/>
<stop offset="0.5" stop-color="#00AFF3"/>
<stop offset="0.75" stop-color="#0086FC"/>
<stop offset="1" stop-color="#007EE0"/>
</radialGradient>
<clipPath id="clip0_314_15551">
<rect width="28" height="28" fill="white"/>
</clipPath>
</defs>
</svg>
