<svg width="24" height="24" viewBox="0 0 24 24" fill="none" xmlns="http://www.w3.org/2000/svg">
<g clip-path="url(#clip0_310_13265)">
<rect width="20" height="17" transform="translate(2 3.84009)" fill="white"/>
<path fill-rule="evenodd" clip-rule="evenodd" d="M1.68857 1.68857C-2.38419e-07 3.37714 0 6.08571 0 11.52V12.48C0 17.9143 -2.38419e-07 20.6229 1.68857 22.3114C3.37714 24 6.08571 24 11.52 24H12.48C17.9143 24 20.6229 24 22.3114 22.3114C24 20.6229 24 17.9143 24 12.48V11.52C24 6.08571 24 3.37714 22.3114 1.68857C20.6229 -2.38419e-07 17.9143 0 12.48 0H11.52C6.08571 0 3.37714 -2.38419e-07 1.68857 1.68857ZM3.98571 7.5C4.12286 13.74 7.40571 17.5029 12.8143 17.5029H13.1314V13.9286C15.1029 14.1257 16.5771 15.6 17.1771 17.5029H20.0229C19.7414 16.4321 19.2381 15.4324 18.5456 14.5686C17.8531 13.7048 16.9868 12.9962 16.0029 12.4886C16.8832 11.9345 17.6408 11.2061 18.229 10.3481C18.8172 9.4902 19.2235 8.52092 19.4229 7.5H16.8343C16.2857 9.48857 14.6743 11.2886 13.1314 11.46V7.5H10.5V14.4257C8.90571 14.0314 6.81429 12.0857 6.72857 7.5H3.98571Z" fill="#0077FF"/>
</g>
<defs>
<clipPath id="clip0_310_13265">
<rect width="24" height="24" fill="white"/>
</clipPath>
</defs>
</svg>
