<svg width="24" height="24" viewBox="0 0 24 24" fill="none" xmlns="http://www.w3.org/2000/svg">
<g clip-path="url(#clip0_310_14168)">
<path d="M12 24C18.6277 24 24 18.6277 24 12C24 5.37231 18.6277 0 12 0C5.37231 0 0 5.37231 0 12C0 18.6277 5.37231 24 12 24Z" fill="#FC3F1D"/>
<path d="M15.8305 18.7201H13.4489V6.93979H12.3883C10.4489 6.93979 9.42892 7.9201 9.42892 9.37025C9.42892 11.0198 10.1388 11.7795 11.5889 12.7598L12.7889 13.5601L9.33845 18.7201H6.76953L9.86922 14.1139C8.08584 12.8456 7.08984 11.5958 7.08984 9.51056C7.08984 6.87979 8.90922 5.1001 12.3791 5.1001H15.8295L15.8305 18.7201Z" fill="white"/>
</g>
<defs>
<clipPath id="clip0_310_14168">
<rect width="24" height="24" fill="white"/>
</clipPath>
</defs>
</svg>
